<?xml version="1.0" standalone="no"?>
<!DOCTYPE svg PUBLIC "-//W3C//DTD SVG 20010904//EN"
 "http://www.w3.org/TR/2001/REC-SVG-20010904/DTD/svg10.dtd">
<svg version="1.0" xmlns="http://www.w3.org/2000/svg"
 width="432.000000pt" height="432.000000pt" viewBox="0 0 432.000000 432.000000"
 preserveAspectRatio="xMidYMid meet">
<metadata>
Created by potrace 1.14, written by Peter Selinger 2001-2017
</metadata>
<g transform="translate(0.000000,432.000000) scale(0.100000,-0.100000)"
fill="#000000" stroke="none">
<path d="M1770 3305 c-44 -8 -109 -31 -160 -56 -84 -42 -91 -48 -842 -792
-417 -412 -758 -753 -758 -758 0 -5 198 -9 462 -9 l463 0 482 482 483 483 280
-280 280 -280 230 230 230 230 -277 278 c-294 295 -388 379 -475 421 -116 56
-269 76 -398 51z"/>
<path d="M2930 2155 l-475 -475 -275 274 -275 275 -233 -227 -234 -227 329
-325 c338 -335 379 -369 499 -411 74 -27 212 -36 296 -20 35 7 101 31 148 53
l85 41 760 759 760 758 -455 0 -455 0 -475 -475z"/>
</g>
</svg>
